<svg id="visual" viewBox="0 0 900 600" width="900" height="600" xmlns="http://www.w3.org/2000/svg" xmlns:xlink="http://www.w3.org/1999/xlink" version="1.1"><rect x="0" y="0" width="900" height="600" fill="#0b1630"></rect><path d="M0 348L21.5 359.2C43 370.3 86 392.7 128.8 399.3C171.7 406 214.3 397 257.2 362.3C300 327.7 343 267.3 385.8 244.5C428.7 221.7 471.3 236.3 514.2 256.8C557 277.3 600 303.7 642.8 328.5C685.7 353.3 728.3 376.7 771.2 364.5C814 352.3 857 304.7 878.5 280.8L900 257L900 601L878.5 601C857 601 814 601 771.2 601C728.3 601 685.7 601 642.8 601C600 601 557 601 514.2 601C471.3 601 428.7 601 385.8 601C343 601 300 601 257.2 601C214.3 601 171.7 601 128.8 601C86 601 43 601 21.5 601L0 601Z" fill="#081736" stroke-linecap="round" stroke-linejoin="miter"></path></svg>